<svg width="81" height="80" viewBox="0 0 81 80" fill="none" xmlns="http://www.w3.org/2000/svg">
<rect x="0.502686" width="80" height="80" rx="15" fill="url(#paint0_linear_10_34)"/>
<path d="M49.8136 33.1189C51.275 32.3912 52.4477 31.191 53.1414 29.7131C53.8351 28.2353 54.0091 26.5663 53.6352 24.9772C53.2612 23.388 52.3612 21.9718 51.0813 20.9583C49.8014 19.9448 48.2165 19.3936 46.5839 19.394H33.6214C31.9889 19.3936 30.404 19.9448 29.1241 20.9583C27.8441 21.9718 26.9442 23.388 26.5702 24.9772C26.1963 26.5663 26.3703 28.2353 27.064 29.7131C27.7576 31.191 28.9304 32.3912 30.3918 33.1189C29.1861 33.7189 28.1716 34.6433 27.4625 35.7883C26.7534 36.9332 26.3777 38.2533 26.3777 39.6001C26.3777 40.9469 26.7534 42.2669 27.4625 43.4119C28.1717 44.5568 29.1862 45.4813 30.3919 46.0813C29.2372 46.6568 28.2571 47.5303 27.5531 48.6115C26.8491 49.6927 26.4467 50.9423 26.3875 52.2312C26.3284 53.52 26.6145 54.8013 27.2165 55.9424C27.8184 57.0836 28.7142 58.0433 29.8113 58.7222C30.9085 59.4011 32.167 59.7747 33.4569 59.8042C34.7467 59.8337 36.0211 59.5181 37.1481 58.8901C38.2751 58.262 39.2139 57.3444 39.8674 56.2319C40.5209 55.1194 40.8654 53.8526 40.8652 52.5624V44.0382C41.5319 44.8979 42.3838 45.5963 43.3575 46.0816C44.3312 46.5668 45.4018 46.8264 46.4896 46.841C47.5774 46.8556 48.6546 46.6249 49.641 46.166C50.6274 45.7072 51.4978 45.0319 52.1874 44.1904C52.877 43.349 53.3681 42.3629 53.6242 41.3056C53.8803 40.2482 53.8949 39.1467 53.6668 38.083C53.4387 37.0192 52.9739 36.0205 52.3068 35.1611C51.6397 34.3017 50.7875 33.6037 49.8136 33.1189ZM52.3027 26.6377C52.301 28.1532 51.6984 29.6063 50.6271 30.6782C49.5558 31.7502 48.1032 32.3537 46.5877 32.3564L46.5839 32.3563L46.5766 32.3565L40.8652 32.3563V20.919H46.5839C48.1001 20.9207 49.5537 21.5237 50.6258 22.5958C51.6979 23.6679 52.301 25.1215 52.3027 26.6377ZM42.1457 33.8813C41.6674 34.2534 41.2373 34.6835 40.8652 35.1618V33.8813L42.1457 33.8813ZM27.9027 26.6377C27.9044 25.1215 28.5075 23.6679 29.5796 22.5958C30.6517 21.5237 32.1053 20.9207 33.6214 20.919H39.3402V32.3563H33.6214L33.6178 32.3564C32.1023 32.3537 30.6496 31.7502 29.5783 30.6782C28.507 29.6063 27.9044 28.1532 27.9027 26.6377ZM33.6214 58.2811C32.8701 58.2817 32.1259 58.1342 31.4316 57.8471C30.7372 57.56 30.1062 57.1389 29.5747 56.6078C29.0432 56.0767 28.6216 55.4461 28.3339 54.7519C28.0462 54.0578 27.8981 53.3138 27.8981 52.5624C27.8981 51.811 28.0462 51.067 28.3339 50.3729C28.6216 49.6788 29.0432 49.0482 29.5747 48.5171C30.1062 47.986 30.7372 47.5648 31.4316 47.2777C32.1259 46.9906 32.8701 46.8432 33.6214 46.8438L39.3402 46.8436V52.5624C39.3385 54.0786 38.7354 55.5322 37.6633 56.6042C36.5912 57.6763 35.1376 58.2794 33.6214 58.2811ZM39.3402 45.3186L33.6214 45.3188C32.1052 45.3185 30.6512 44.7161 29.579 43.6441C28.5068 42.5721 27.9042 41.1181 27.9037 39.6019C27.9032 38.0857 28.5049 36.6313 29.5764 35.5586C30.6479 34.4859 32.1016 33.8826 33.6178 33.8814L33.6214 33.8815L39.3402 33.8813V45.3186ZM46.5839 45.3188C45.0682 45.3183 43.6147 44.7161 42.5427 43.6445C41.4708 42.5729 40.8681 41.1195 40.8671 39.6038C40.8661 38.088 41.4669 36.6339 42.5375 35.5609C43.6081 34.488 45.0609 33.8839 46.5766 33.8815H46.5839L46.5876 33.8814C48.1033 33.8833 49.5563 34.4869 50.6273 35.5595C51.6982 36.6322 52.2995 38.0861 52.299 39.6019C52.2986 41.1176 51.6963 42.5712 50.6247 43.6432C49.5531 44.7151 48.0997 45.3178 46.5839 45.3188Z" fill="white"/>
<defs>
<linearGradient id="paint0_linear_10_34" x1="4.90269" y1="78.4" x2="76.9027" y2="3.2" gradientUnits="userSpaceOnUse">
<stop stop-color="#1E1E1E"/>
<stop offset="0.809798" stop-color="#1E1E1E"/>
</linearGradient>
</defs>
</svg>
