<svg width="80" height="80" viewBox="0 0 80 80" fill="none" xmlns="http://www.w3.org/2000/svg">
<rect width="80" height="80" rx="15" fill="url(#paint0_linear_10_19)"/>
<path d="M19.2 18.4H61.6L57.6 61.2L40.4 66.8L22.8 61.2L19.2 18.4Z" fill="white"/>
<path d="M19.2 18.4H40.8V67.2L22.8 61.2L19.2 18.4Z" fill="#DADADA" fill-opacity="0.94"/>
<path d="M37.6 26.4H33.0489H32.7645V49.44L24.8 47.136V52.032L37.6 55.2V26.4Z" fill="url(#paint1_linear_10_19)"/>
<path d="M56.5106 31.008L56.8 26.688L43.2 26.4V43.968L50.7234 42.816L50.434 48.576L43.2 50.592V55.2L54.4851 52.032L55.6425 37.632L48.1191 38.496V31.008H56.5106Z" fill="url(#paint2_linear_10_19)" stroke="white"/>
<defs>
<linearGradient id="paint0_linear_10_19" x1="-0.800002" y1="96.4" x2="70.8" y2="8.8" gradientUnits="userSpaceOnUse">
<stop offset="0.114583" stop-color="#FF9E00"/>
<stop offset="0.492103" stop-color="#FFC700"/>
<stop offset="1" stop-color="#FFDF00"/>
</linearGradient>
<linearGradient id="paint1_linear_10_19" x1="8.40005" y1="69.2" x2="50.0586" y2="63.2563" gradientUnits="userSpaceOnUse">
<stop offset="0.0520833" stop-color="#FF9E00"/>
<stop offset="0.61339" stop-color="#FFC700"/>
<stop offset="1" stop-color="#FFDF00"/>
</linearGradient>
<linearGradient id="paint2_linear_10_19" x1="39.2" y1="64" x2="65.7428" y2="50.9684" gradientUnits="userSpaceOnUse">
<stop offset="0.114583" stop-color="#FF9E00"/>
<stop offset="0.369043" stop-color="#FFC700"/>
<stop offset="1" stop-color="#FFDF00"/>
</linearGradient>
</defs>
</svg>
