<svg width="81" height="80" viewBox="0 0 81 80" fill="none" xmlns="http://www.w3.org/2000/svg">
<rect x="0.261963" width="80" height="80" rx="15" fill="url(#paint0_linear_10_14)"/>
<path d="M61.9578 43.3456C59.8554 43.3576 58.0354 43.8624 56.5082 44.6144C55.9442 43.4984 55.3802 42.524 55.2866 41.796C55.181 40.9504 55.0514 40.4336 55.181 39.4232C55.3106 38.4128 55.8978 36.98 55.8978 36.8632C55.8858 36.7576 55.7698 36.2408 54.5586 36.2288C53.3474 36.2168 52.3026 36.464 52.1858 36.7888C51.9763 37.3754 51.8076 37.9758 51.681 38.5856C51.4698 39.6896 49.2618 43.6016 48.005 45.656C47.5938 44.8576 47.2418 44.152 47.1714 43.5888C47.0658 42.7432 46.9362 42.2264 47.0658 41.216C47.1954 40.2056 47.7826 38.7728 47.7826 38.656C47.7706 38.5504 47.6546 38.0336 46.4434 38.0216C45.2322 38.0096 44.1874 38.2568 44.0706 38.5816C43.9538 38.9064 43.8242 39.6504 43.5666 40.3784C43.3202 41.0984 40.3842 47.6368 39.6202 49.3384C39.233 50.2072 38.9002 50.9008 38.6442 51.3704C38.3882 51.84 38.6322 51.4056 38.609 51.4528L38.281 52.0752V52.0872C38.1162 52.3808 37.9402 52.6632 37.857 52.6632C37.7986 52.6632 37.681 51.876 37.881 50.796C38.3154 48.5296 39.3722 44.9944 39.361 44.8648C39.361 44.8064 39.561 44.1848 38.681 43.8664C37.8234 43.5496 37.5186 44.0776 37.449 44.0776C37.3794 44.0776 37.321 44.2656 37.321 44.2656C37.321 44.2656 38.273 40.284 35.5002 40.284C33.7618 40.284 31.3658 42.1752 30.1802 43.9016L24.1906 47.1784L24.0626 47.0376C20.7026 43.4552 14.4906 40.9176 14.749 36.1032C14.8426 34.3536 15.453 29.7376 26.6818 24.1472C35.8778 19.5672 43.2418 20.8232 44.5218 23.6192C46.3426 27.6112 40.5874 35.0352 31.0274 36.104C27.3874 36.5152 25.4722 35.1056 24.9906 34.5776C24.4866 34.0176 24.4146 34.0016 24.2274 34.108C23.9218 34.2728 24.1098 34.7656 24.2274 35.06C24.509 35.8 25.6834 37.116 27.6802 37.772C29.4298 38.348 33.7042 38.6648 38.8722 36.668C44.6586 34.4 49.1802 28.184 47.8538 22.98C46.5018 17.6832 37.7178 15.9456 29.4138 18.8936C24.4698 20.656 19.1146 23.4032 15.2618 27.008C10.6818 31.2832 9.95301 35.0176 10.2586 36.568C11.3274 42.1 18.9498 45.7056 22.0026 48.3712L21.5786 48.6064C20.0522 49.3584 14.2386 52.4 12.7818 55.6176C11.1378 59.2576 13.0402 61.8776 14.3082 62.2296C18.2306 63.3216 22.2474 61.3608 24.4202 58.1304C26.5802 54.9008 26.3226 50.708 25.3242 48.7944L25.289 48.724L26.4866 48.02C27.2152 47.5921 27.9513 47.1771 28.6946 46.7752C28.3186 47.7968 28.049 49.0072 27.9074 50.7672C27.7426 52.8344 28.5874 55.5112 29.7042 56.5688C30.1978 57.0272 30.7842 57.0384 31.149 57.0384C32.441 57.0384 33.029 55.9696 33.6738 54.6896C34.4722 53.1272 35.1778 51.3192 35.1778 51.3192C35.1778 51.3192 34.2978 56.2168 36.7042 56.2168C37.5842 56.2168 38.4658 55.0776 38.8642 54.4904V54.5024C38.8642 54.5024 38.8882 54.4672 38.9346 54.3848C39.0282 54.244 39.0754 54.1608 39.0754 54.1608V54.1368C39.4274 53.5264 40.2146 52.1368 41.389 49.8144C42.9042 46.8304 44.3602 43.0968 44.3602 43.0968C44.3602 43.0968 44.501 44.0128 44.9362 45.516C45.1946 46.4088 45.7586 47.3832 46.1922 48.3344L45.6282 49.1104L45.6402 49.1224C45.3586 49.4984 45.0402 49.8984 44.7122 50.2968C43.5146 51.7288 42.0818 53.3624 41.8938 53.8328C41.6698 54.3928 41.7178 54.796 42.1522 55.1248C42.469 55.36 43.0322 55.4064 43.6322 55.36C44.7122 55.2896 45.4722 55.0192 45.8402 54.856C46.5182 54.6144 47.1586 54.2783 47.7426 53.8576C48.917 52.9888 49.6338 51.7552 49.5634 50.1112C49.5282 49.2072 49.2354 48.3144 48.8706 47.4688L49.1874 46.9992C51.0434 44.2872 52.4754 41.3032 52.4754 41.3032C52.4754 41.3032 52.6162 42.2192 53.0514 43.7224C53.2754 44.4856 53.721 45.32 54.1202 46.1416C52.3818 47.5624 51.2898 49.2072 50.9138 50.2872C50.221 52.284 50.7618 53.188 51.7826 53.4072C52.241 53.5008 52.8986 53.2896 53.3906 53.0792C54.001 52.8792 54.741 52.5392 55.4226 52.0336C56.597 51.1648 57.7242 49.9552 57.6658 48.3216C57.6306 47.5696 57.4306 46.8304 57.1618 46.1256C58.6418 45.5152 60.5562 45.1624 62.9874 45.456C68.2138 46.0664 69.2474 49.332 69.0474 50.6944C68.8474 52.0568 67.7554 52.8088 67.3914 53.0432C67.0274 53.2672 66.9098 53.3488 66.945 53.5128C66.993 53.7592 67.1562 53.748 67.473 53.7008C67.9074 53.6304 70.221 52.5848 70.3154 50.072C70.4562 46.8424 67.3906 43.32 61.953 43.3544L61.9578 43.3456ZM21.6514 56.9336C19.925 58.8248 17.4938 59.5416 16.4594 58.9304C15.3434 58.2848 15.7794 55.5008 17.9042 53.4928C19.1962 52.2712 20.8754 51.144 21.9794 50.4512L23.0482 49.8056C23.1186 49.7576 23.1658 49.7352 23.1658 49.7352C23.2482 49.6872 23.3418 49.6296 23.4362 49.5704C24.2234 52.436 23.4714 54.9496 21.6522 56.9344L21.6514 56.9336ZM34.277 48.348C33.677 49.816 32.4098 53.5864 31.6466 53.3744C30.989 53.1984 30.5906 50.344 31.5186 47.5264C31.9882 46.1056 32.9866 44.4064 33.5746 43.756C34.5266 42.7 35.5586 42.3464 35.8178 42.7816C36.1234 43.3456 34.6554 47.4328 34.2794 48.3496L34.277 48.348ZM44.6938 53.328C44.4354 53.456 44.2002 53.552 44.0938 53.48C44.0114 53.432 44.1994 53.256 44.1994 53.256C44.1994 53.256 45.5034 51.8584 46.0202 51.2128L47.0418 49.9088V50.0496C47.0418 51.7408 45.421 52.868 44.693 53.3264L44.6938 53.328ZM52.7274 51.488C52.5394 51.3472 52.5626 50.912 53.197 49.5504C53.4434 49.0104 54.0074 48.1056 54.981 47.2488C55.0986 47.6008 55.169 47.9416 55.157 48.2592C55.145 50.3736 53.6418 51.16 52.725 51.4888L52.7274 51.488Z" fill="white"/>
<defs>
<linearGradient id="paint0_linear_10_14" x1="4.66197" y1="78.4" x2="76.662" y2="3.2" gradientUnits="userSpaceOnUse">
<stop stop-color="#C5003A"/>
<stop offset="0.809798" stop-color="#ED0071"/>
</linearGradient>
</defs>
</svg>
